<svg class="gnav-LoggedOutAccountLink-signInIcon" xmlns="http://www.w3.org/2000/svg" viewBox="0 0 16 18" focusable="false" aria-hidden="true"><path d="M2.516 15.75l1.03-3.43c.191-.641.768-1.07 1.436-1.07H5l3 3 3-3h.018c.667 0 1.245.429 1.436 1.07l1.03 3.43H2.516zm7.423-4.5L8 13.19l-1.94-1.94h3.88zm3.952.638a2.999 2.999 0 0 0-2.873-2.138H4.982a2.999 2.999 0 0 0-2.873 2.138L.5 17.25h15l-1.609-5.362zM8 2.25c1.448 0 2.625 1.177 2.625 2.625S9.447 7.5 8 7.5 5.375 6.322 5.375 4.875 6.553 2.25 8 2.25M8 9A4.125 4.125 0 1 0 8 .75 4.125 4.125 0 0 0 8 9" fill="white"></path></svg>