<svg width="422" height="419" viewBox="0 0 422 419" fill="none" xmlns="http://www.w3.org/2000/svg">
<ellipse cx="211" cy="211.5" rx="125" ry="125.5" fill="#FFD540"/>
<path d="M211 0L247.373 64.5H174.627L211 0Z" fill="#FFD540"/>
<path d="M211 419L174.627 354.5H247.373L211 419Z" fill="#FFD540"/>
<path d="M364.51 62.6985L344.621 134.027L293.182 82.5872L364.51 62.6985Z" fill="#FFD540"/>
<path d="M365.51 355.51L294.182 335.621L345.621 284.182L365.51 355.51Z" fill="#FFD540"/>
<path d="M55.6985 354.51L75.5872 283.182L127.027 334.621L55.6985 354.51Z" fill="#FFD540"/>
<path d="M66.6985 61.6985L138.027 81.5872L86.5872 133.027L66.6985 61.6985Z" fill="#FFD540"/>
<path d="M0 203L64.5 166.627L64.5 239.373L0 203Z" fill="#FFD540"/>
<path d="M422 203L357.5 239.373V166.627L422 203Z" fill="#FFD540"/>
</svg>
